<?xml version="1.0" standalone="no"?>
<!DOCTYPE svg PUBLIC "-//W3C//DTD SVG 20010904//EN"
 "http://www.w3.org/TR/2001/REC-SVG-20010904/DTD/svg10.dtd">
<!-- Generator: Adobe Illustrator 25.2.1, SVG Export Plug-In  -->
<svg version="1.1" xmlns="http://www.w3.org/2000/svg" xmlns:xlink="http://www.w3.org/1999/xlink" x="0px" y="0px"
	 width="779.67px" height="166.71px" viewBox="0 0 779.67 166.71"
	 style="overflow:visible;enable-background:new 0 0 779.67 166.71;" xml:space="preserve">
<style type="text/css">
	.st0{fill:#E3E3E3;}
</style>
<defs>
</defs>
<g>
	<path class="st0" d="M0,158.39l12.94-2.92c1.38-0.36,2.5-1.05,3.4-2.11c0.9-1.04,1.35-2.35,1.35-3.94V77.52
		c0-1.79-0.48-3.31-1.44-4.53c-0.99-1.23-2.62-2.24-4.93-3.02l-10.89-3.9V62.4l36.07-7.24v94.26c0,1.67,0.42,2.99,1.29,4
		c0.84,1.01,2.02,1.68,3.46,2.05l12.09,2.92v5.4H0V158.39z M25.78,30.34c-1.87,0-3.61-0.35-5.24-1.04
		c-1.59-0.68-3.04-1.59-4.24-2.75c-1.23-1.14-2.2-2.51-2.92-4.09c-0.72-1.59-1.08-3.35-1.08-5.3c0-1.87,0.36-3.63,1.08-5.24
		c0.72-1.62,1.68-3.02,2.92-4.21c1.2-1.19,2.65-2.11,4.24-2.75c1.62-0.65,3.37-0.98,5.24-0.98c1.9,0,3.67,0.33,5.36,0.98
		s3.16,1.55,4.42,2.69c1.26,1.16,2.23,2.53,2.92,4.11s1.02,3.31,1.02,5.19c0,1.94-0.33,3.73-1.02,5.39
		c-0.69,1.67-1.65,3.07-2.92,4.21c-1.26,1.16-2.74,2.08-4.42,2.75C29.46,30,27.68,30.34,25.78,30.34z"/>
	<path class="st0" d="M79.04,22.57c0-1.88-0.51-3.4-1.53-4.59c-0.99-1.19-2.62-2.21-4.84-3.08l-10.59-3.99V7.24L97.69,0v67.05v5.61
		c2.95-4.24,6.05-7.63,9.3-10.15c3.25-2.51,6.38-4.36,9.45-5.55c3.07-1.19,5.93-1.96,8.63-2.32c2.71-0.36,4.96-0.54,6.74-0.54
		c6.65,0,12.55,1.29,17.72,3.88s9.57,6.2,13.18,10.8c3.58,4.6,6.35,10.11,8.24,16.52c1.93,6.41,2.86,13.42,2.86,21.06
		c0,8.35-1.14,16.19-3.49,23.53s-5.78,13.75-10.26,19.23c-4.51,5.48-10.02,9.76-16.52,12.91c-6.53,3.13-13.96,4.69-22.29,4.69
		c-3.25,0-6.59-0.15-10.05-0.44c-3.46-0.29-6.95-0.81-10.47-1.56c-3.52-0.75-7.13-1.76-10.8-3.02c-3.67-1.26-7.31-2.86-10.89-4.8
		V22.57z M97.69,149.01c1.02,1.07,2.44,2.17,4.27,3.29c1.84,1.11,3.79,2.15,5.9,3.13c2.08,0.96,4.18,1.75,6.32,2.32
		c2.11,0.57,4.03,0.86,5.78,0.86c5.81,0,10.89-1.23,15.22-3.72c4.3-2.48,7.88-5.79,10.68-9.93c2.8-4.15,4.9-8.92,6.26-14.32
		c1.38-5.39,2.05-10.97,2.05-16.73c0-6.77-0.63-13.03-1.93-18.79c-1.29-5.76-3.28-10.73-5.96-14.89c-2.65-4.18-6.05-7.46-10.14-9.84
		c-4.09-2.36-9.03-3.55-14.8-3.55c-1.65,0-3.52,0.2-5.6,0.59c-2.11,0.39-4.21,1.02-6.38,1.9c-2.17,0.86-4.24,2.06-6.26,3.61
		c-2.02,1.55-3.82,3.44-5.42,5.67V149.01z"/>
	<path class="st0" d="M190.75,158.39l12.22-2.92c1.44-0.36,2.62-1.05,3.52-2.11c0.87-1.04,1.32-2.35,1.32-3.94V77.74
		c0-1.88-0.51-3.46-1.56-4.75c-1.02-1.29-2.68-2.35-4.9-3.13l-10.47-3.9v-3.78l34.33-7.13v23.86h0.21c2.02-3.16,4.15-6.21,6.38-9.18
		c2.23-2.95,4.69-5.57,7.4-7.88c2.71-2.3,5.63-4.17,8.76-5.61c3.13-1.43,6.59-2.15,10.41-2.15c1.96,0,3.67,0.09,5.17,0.27
		c1.53,0.18,2.92,0.42,4.15,0.75c1.26,0.32,2.47,0.72,3.58,1.19c1.11,0.47,2.29,0.99,3.49,1.56v25.59h-6.8l-3.43-8.97
		c-0.3-0.72-0.9-1.37-1.81-1.94c-0.9-0.57-1.93-1.04-3.13-1.4c-1.17-0.36-2.41-0.65-3.73-0.87c-1.29-0.21-2.5-0.32-3.67-0.32
		c-2.65,0-5.14,0.36-7.49,1.08c-2.35,0.71-4.57,1.75-6.68,3.07c-2.14,1.34-4.12,2.95-6.02,4.86c-1.87,1.91-3.7,4.05-5.51,6.42v64.02
		c0,1.67,0.45,2.99,1.29,4c0.87,1.01,2.02,1.68,3.46,2.05l14.47,2.92v5.4h-54.97V158.39z"/>
	<path class="st0" d="M350.48,148.03c-2.62,3.88-5.42,7-8.48,9.34c-3.07,2.33-6.17,4.15-9.36,5.45c-3.16,1.31-6.26,2.15-9.33,2.54
		c-3.07,0.39-5.9,0.6-8.48,0.6c-4.3,0-8.18-0.78-11.64-2.33c-3.46-1.55-6.44-3.63-8.91-6.26c-2.5-2.63-4.42-5.67-5.78-9.13
		c-1.38-3.44-2.08-7.09-2.08-10.89c0-4.54,0.81-8.57,2.38-12.09c1.59-3.54,3.73-6.63,6.38-9.3c2.68-2.66,5.72-4.92,9.18-6.8
		c3.46-1.87,7.01-3.4,10.68-4.59c3.67-1.19,7.37-2.05,11.07-2.59c3.73-0.54,7.19-0.81,10.44-0.81c0.63,0,1.59,0.06,2.92,0.17
		c1.29,0.11,2.62,0.21,4.03,0.32c1.41,0.12,2.77,0.23,4.09,0.33c1.35,0.11,2.38,0.17,3.1,0.17l0.09-18.79c0-3.6-0.33-6.59-1.02-8.97
		c-0.69-2.38-1.71-4.27-3.07-5.67s-3.1-2.38-5.17-2.92c-2.11-0.53-4.54-0.8-7.34-0.8c-3.55,0-7.01,0.59-10.44,1.78
		c-3.4,1.19-6.62,2.66-9.66,4.42c-3.01,1.78-5.84,3.61-8.42,5.51c-2.59,1.91-4.78,3.55-6.59,4.92h-2.68l-2.92-17.81
		c2.29-1.16,4.78-2.3,7.43-3.46c2.68-1.16,5.54-2.2,8.6-3.13c3.04-0.93,6.32-1.7,9.75-2.27c3.46-0.57,7.13-0.86,11.01-0.86
		c4.54,0,9.15,0.59,13.84,1.78c4.66,1.19,8.91,3.11,12.7,5.78c3.76,2.66,6.83,6.24,9.21,10.74c2.38,4.5,3.55,9.99,3.46,16.47
		l-0.54,57.23c0,1.08,0.21,2.06,0.6,2.96c0.39,0.9,0.99,1.68,1.78,2.33c0.81,0.65,1.75,1.13,2.86,1.44c1.11,0.33,2.44,0.5,3.94,0.5
		c0.45,0,1.05-0.08,1.84-0.23c0.81-0.14,1.68-0.32,2.65-0.53c0.99-0.23,1.96-0.48,2.92-0.77c0.96-0.29,1.84-0.54,2.53-0.75h1.2v5.84
		c-1.02,0.78-2.35,1.7-4,2.75c-1.65,1.04-3.46,2.03-5.39,2.96c-1.96,0.93-3.94,1.73-5.99,2.38c-2.08,0.65-4.03,0.98-5.9,0.98
		c-2.8,0-5.3-0.32-7.46-0.92c-2.14-0.62-3.97-1.61-5.45-2.98c-1.47-1.37-2.56-3.2-3.25-5.51c-0.66-2.3-1.02-5.14-1.02-8.53H350.48z
		 M296.27,20.94h68.66v12.31h-68.66V20.94z M350.69,108.4c-6.71,0-12.79,0.45-18.26,1.35c-5.48,0.9-10.11,2.33-13.93,4.32
		c-3.82,1.97-6.77,4.54-8.85,7.72s-3.13,6.98-3.13,11.45c0,3.81,0.57,7,1.71,9.55c1.17,2.56,2.65,4.62,4.45,6.21
		c1.78,1.58,3.82,2.71,6.08,3.4c2.29,0.68,4.45,1.02,6.53,1.02c2.11,0,4.33-0.21,6.71-0.65c2.38-0.44,4.66-1.11,6.92-2.05
		c2.23-0.95,4.33-2.14,6.35-3.57c2.02-1.44,3.76-3.17,5.21-5.19L350.69,108.4z"/>
	<path class="st0" d="M396.24,158.39l11.88-2.92c1.5-0.42,2.68-1.13,3.49-2.11c0.84-0.96,1.26-2.24,1.26-3.82V22.57
		c0-1.88-0.48-3.4-1.41-4.59c-0.93-1.19-2.56-2.21-4.87-3.08l-10.56-3.99V7.24L431.66,0v66.94v5.72c3.01-4.11,5.99-7.36,8.91-9.76
		c2.92-2.42,5.75-4.27,8.54-5.57c2.77-1.29,5.51-2.17,8.24-2.59c2.74-0.44,5.51-0.65,8.3-0.65c4.69,0,9.12,0.72,13.3,2.15
		c4.18,1.44,7.82,3.67,10.95,6.69c3.13,3.02,5.6,6.92,7.4,11.66c1.81,4.75,2.71,10.44,2.71,17.06v57.35c0,1.79,0.45,3.22,1.35,4.26
		c0.87,1.05,2.02,1.79,3.4,2.21l10.56,2.92v5.4h-50.52v-5.4l11.85-2.92c1.23-0.36,2.29-1.07,3.19-2.15c0.9-1.08,1.35-2.53,1.35-4.32
		V98.9c0-4.89-0.27-9.3-0.87-13.22c-0.57-3.93-1.71-7.27-3.43-10.03c-1.75-2.78-4.15-4.92-7.25-6.44c-3.1-1.5-7.16-2.26-12.19-2.26
		c-2.17,0-4.42,0.21-6.8,0.65s-4.72,1.1-6.98,2c-2.26,0.89-4.45,2.06-6.53,3.51s-3.91,3.16-5.51,5.17v71.16
		c0,1.67,0.42,2.98,1.29,3.94c0.87,0.98,2.02,1.68,3.46,2.11l10.26,2.92v5.4h-50.43V158.39z"/>
	<path class="st0" d="M531.45,39.29c-1.59,0-3.1-0.3-4.54-0.92c-1.44-0.6-2.68-1.41-3.73-2.42c-1.05-1.01-1.9-2.23-2.53-3.67
		c-0.66-1.44-0.99-2.99-0.99-4.65c0-1.73,0.33-3.29,0.93-4.69c0.6-1.4,1.44-2.65,2.53-3.73c1.08-1.07,2.32-1.9,3.73-2.48
		c1.41-0.57,2.95-0.86,4.6-0.86c1.65,0,3.22,0.3,4.72,0.92c1.53,0.62,2.83,1.41,3.94,2.42c1.14,1.01,1.99,2.21,2.62,3.63
		c0.6,1.4,0.9,2.93,0.9,4.59c0,1.73-0.33,3.31-0.96,4.75c-0.66,1.43-1.5,2.68-2.59,3.72c-1.08,1.05-2.38,1.88-3.91,2.48
		C534.67,38.99,533.11,39.29,531.45,39.29z M528.75,158.39l12.97-2.92c1.35-0.36,2.5-1.05,3.4-2.11c0.87-1.04,1.32-2.35,1.32-3.94
		V77.52c0-1.79-0.48-3.31-1.44-4.53c-0.96-1.23-2.62-2.24-4.9-3.02l-10.92-3.9V62.4l35.95-7.24v94.26c0,1.67,0.45,2.99,1.35,4
		c0.9,1.01,2.05,1.68,3.4,2.05l12.09,2.92v5.4h-53.22V158.39z M574.09,39.29c-1.59,0-3.1-0.3-4.54-0.92
		c-1.41-0.6-2.68-1.41-3.7-2.42c-1.05-1.01-1.9-2.23-2.56-3.67c-0.63-1.44-0.96-2.99-0.96-4.65c0-1.73,0.3-3.29,0.9-4.69
		c0.63-1.4,1.47-2.65,2.56-3.73c1.08-1.07,2.32-1.9,3.73-2.48c1.38-0.57,2.92-0.86,4.57-0.86s3.25,0.3,4.75,0.92
		c1.5,0.62,2.83,1.41,3.94,2.42c1.11,1.01,1.99,2.21,2.59,3.63c0.6,1.4,0.93,2.93,0.93,4.59c0,1.73-0.33,3.31-0.93,4.75
		c-0.6,1.43-1.47,2.68-2.59,3.72c-1.11,1.05-2.44,1.88-3.94,2.48C577.34,38.99,575.74,39.29,574.09,39.29z"/>
	<path class="st0" d="M595.99,158.6l12-3.01c1.41-0.36,2.56-1.08,3.4-2.17c0.81-1.08,1.23-2.41,1.23-4V77.41
		c0-1.81-0.48-3.29-1.41-4.48c-0.93-1.19-2.53-2.18-4.75-2.96l-10.47-3.9V62.4l34.57-7.34v17.6h0.21c2.65-3.6,5.3-6.59,7.94-8.97
		c2.62-2.36,5.33-4.26,8.09-5.66c2.77-1.41,5.6-2.42,8.51-3.02c2.92-0.62,5.99-0.92,9.24-0.92c3.46,0,6.8,0.39,10.05,1.19
		c3.22,0.78,6.2,2.02,8.91,3.67s5.08,3.78,7.13,6.36c2.05,2.59,3.61,5.73,4.69,9.4c3.52-4.9,6.86-8.71,10.05-11.45
		c3.16-2.74,6.23-4.77,9.18-6.11c2.95-1.32,5.81-2.17,8.57-2.53c2.77-0.36,5.45-0.54,8.03-0.54c4.6,0,8.94,0.72,12.97,2.15
		c4.03,1.44,7.55,3.67,10.53,6.69c2.98,3.02,5.36,6.92,7.07,11.66c1.71,4.75,2.59,10.44,2.59,17.06v57.89
		c0,1.58,0.45,2.86,1.35,3.82c0.9,0.98,2.05,1.68,3.4,2.11l10.59,2.92v5.4h-50.34v-5.19l11.67-3.01c1.44-0.36,2.56-1.08,3.4-2.17
		c0.81-1.08,1.23-2.45,1.23-4.11V98.9c0-4.89-0.27-9.3-0.84-13.22c-0.6-3.93-1.65-7.27-3.19-10.03c-1.56-2.78-3.82-4.92-6.8-6.44
		c-3.01-1.5-6.92-2.26-11.73-2.26c-2.02,0-4.18,0.21-6.47,0.65c-2.32,0.44-4.6,1.1-6.86,2c-2.26,0.89-4.42,2.08-6.47,3.55
		c-2.08,1.49-3.88,3.26-5.48,5.36v71.05c0,1.65,0.45,2.95,1.35,3.88c0.9,0.93,2.05,1.62,3.4,2.05l10.26,2.92v5.4h-49.88v-5.19
		l11.55-3.01c1.44-0.36,2.59-1.07,3.4-2.11c0.84-1.05,1.26-2.36,1.26-3.94V98.9c0-4.89-0.3-9.3-0.87-13.22
		c-0.57-3.93-1.65-7.27-3.25-10.03c-1.56-2.78-3.85-4.92-6.8-6.44c-2.95-1.5-6.86-2.26-11.76-2.26c-2.17,0-4.39,0.21-6.71,0.65
		c-2.29,0.44-4.57,1.1-6.8,2c-2.23,0.89-4.33,2.06-6.35,3.51s-3.79,3.16-5.3,5.17v71.16c-0.15,1.67,0.27,2.98,1.23,3.94
		c0.96,0.98,2.14,1.68,3.52,2.11l10.35,2.92v5.4h-50.43V158.6z"/>
</g>
</svg>
